<?xml version="1.0" encoding="UTF-8"?>
<svg id="Capa_1" data-name="Capa 1" xmlns="http://www.w3.org/2000/svg" viewBox="0 0 572.27 222.75">
  <g>
    <path d="M175.83,110.84v-21.79h-5.08v-1.01h5.08v-8.35l10.69-2.03v10.39h9.6v1.01h-9.6v23.42c0,3.91,1.33,5.7,4.06,5.7,3.13,0,5.47-2.34,7.18-4.45l.39.31c-2.65,3.2-6.4,7.03-12.57,7.03-5.78,0-9.76-3.36-9.76-10.23Z" style="fill: #fff; stroke-width: 0px;"/>
    <path d="M199.41,104.12c0-10.46,8.51-16.94,18.74-16.94s18.74,6.48,18.74,16.94-8.44,16.95-18.74,16.95-18.74-6.4-18.74-16.95ZM225.57,104.12c0-10.23-1.95-16.32-7.41-16.32s-7.42,6.09-7.42,16.32,2.03,16.4,7.42,16.4,7.41-6.17,7.41-16.4Z" style="fill: #fff; stroke-width: 0px;"/>
  </g>
  <g>
    <path d="M27.26,117.96c12.95,0,18.82-3.63,18.82-18.13V34.23c0-5.87-1.38-9.15-7.77-9.15h-12.08v-.86c15.36-1.38,29.69-4.49,43.85-12.26l.86.34v88.74c0,14.5,5.52,16.92,17.26,16.92v1.03H27.26v-1.03Z" style="fill: #fff; stroke-width: 0px;"/>
    <path d="M94.62,47.52l-.58-10.92.35-.06c2.48,6.47,5.43,12.08,12.77,12.08,5.38,0,7.92-2.95,7.92-6.47,0-10.11-20.63-6.7-20.63-20.05,0-6.3,4.57-10.17,13.35-10.17,4.74,0,7.69,1.16,11.67.23l.64,11.5-.29.06c-2.31-5.72-4.97-11.44-11.73-11.44-4.79,0-6.99,2.83-6.99,6.01,0,9.53,20.74,6.53,20.74,19.99,0,6.82-5.43,10.75-14.62,10.75-4.16,0-9.19-.81-12.59-1.5Z" style="fill: #fff; stroke-width: 0px;"/>
    <path d="M133.45,47.98c4.04,0,5.78-1.1,5.78-6.13V13.02h-.46c-7.98,0-10.69,5.95-12.66,12.43l-.23-.06.92-12.77h33.46l.98,12.77-.29.06c-1.91-6.47-4.62-12.43-12.66-12.43h-.46v28.84c0,5.03,1.73,6.13,5.78,6.13v.35h-20.17v-.35Z" style="fill: #fff; stroke-width: 0px;"/>
  </g>
  <g>
    <path d="M256.13,97.41c0-7.42,5.35-14.16,13.12-14.16,7.25,0,13.12,6.05,13.12,13.64,0,6.56-4.31,12.08-10.19,13.47,2.59,4.66,8.12,8.98,18.47,8.98,17.44,0,25.38-12.26,25.38-28.14,0-16.92-9.32-25.73-26.93-26.07-9.32-.17-11.05,1.73-13.12,1.73-1.38,0-3.1-1.04-3.1-2.59,0-1.38,1.21-2.76,3.1-2.76,2.07,0,2.94,2.24,13.12,2.07,17.09-.69,23.65-13.29,23.65-27.11,0-14.5-7.42-24.52-21.24-24.52-9.32,0-14.68,4.49-17.61,9.15,6.04,1.21,10.53,6.56,10.53,13.29,0,7.42-5.7,13.12-13.29,13.12s-12.78-5.87-12.78-13.47c0-13.12,15.36-23.83,40.05-23.83s41.09,9.67,41.09,26.93-18.99,26.59-43.33,26.76h-1.21v.69h1.21c24.86,0,46.79,7.59,46.79,27.28s-21.58,29.18-45.41,29.18c-25.21,0-41.44-10.87-41.44-23.65Z" style="fill: #fff; stroke-width: 0px;"/>
    <path d="M359.04,65.65c0-32.11,17.1-55.42,46.1-55.42s45.92,23.31,45.92,55.42-17.09,55.42-45.92,55.42-46.1-23.31-46.1-55.42ZM424.48,65.65c0-24.69-3.45-54.21-19.34-54.21s-19.34,29.52-19.34,54.21,3.28,54.21,19.34,54.21,19.34-29.35,19.34-54.21Z" style="fill: #fff; stroke-width: 0px;"/>
    <path d="M468.38,47.98c4.04,0,5.78-1.1,5.78-6.13V13.02h-.46c-7.98,0-10.69,5.95-12.66,12.43l-.23-.06.92-12.77h33.46l.98,12.77-.29.06c-1.91-6.47-4.62-12.43-12.66-12.43h-.46v28.84c0,5.03,1.74,6.13,5.78,6.13v.35h-20.17v-.35Z" style="fill: #fff; stroke-width: 0px;"/>
    <path d="M499.41,47.98c4.04,0,4.91-1.27,4.91-5.66v-23.69c0-4.39-.86-5.67-4.91-5.67v-.35h18.43v.35c-4.04,0-4.91,1.27-4.91,5.67v11.38h16.59v-11.38c0-4.39-.87-5.67-4.91-5.67v-.35h18.38v.35c-4.04,0-4.91,1.27-4.91,5.67v23.69c0,4.39.87,5.66,4.91,5.66v.35h-18.38v-.35c4.04,0,4.91-1.27,4.91-5.66v-11.79h-16.59v11.79c0,4.39.87,5.66,4.91,5.66v.35h-18.43v-.35Z" style="fill: #fff; stroke-width: 0px;"/>
  </g>
  <g>
    <path d="M31.24,205.99l-.37-13.81,1.2-.18c3.87,10.49,12.06,18.59,24.3,18.59,6.35,0,12.24-4.05,12.24-11.6,0-9.02-11.87-13.26-19.24-16.2-9.48-3.96-17.4-7.09-17.4-17.77,0-11.41,9.21-18.5,23.66-18.5,6.81,0,12.89,1.47,17.67,3.87l.37,11.97-1.01.37c-3.77-9.48-11.6-14.64-20.53-14.64-7.36,0-13.16,4.33-13.16,11.6,0,8.19,9.3,11.51,16.66,14.45,9.39,3.59,20.53,7.73,20.53,18.78,0,12.61-11.6,19.61-22.18,19.61-9.48,0-18.04-3.04-22.74-6.54Z" style="fill: #fff; stroke-width: 0px;"/>
    <path d="M83.79,211.6v-1.29c3.04-1.01,3.68-3.77,3.68-10.4v-41.06c0-6.63-.64-9.39-3.68-10.4v-1.29h44.18l1.01,12.98-1.2.28c-3.68-9.02-9.48-11.78-19.79-11.78h-10.77v27.62h8.84c11.23,0,14.45-2.21,15.92-7h1.29v15.46h-1.29c-1.47-4.79-4.69-7-15.92-7h-8.84v27.8c0,2.95,1.66,4.6,4.6,4.6h8.84c9.3,0,15.65-2.76,19.15-12.15l1.2.18-.64,13.44h-46.58Z" style="fill: #fff; stroke-width: 0px;"/>
    <path d="M139.48,210.31c3.04-1.01,3.68-3.77,3.68-10.4v-41.06c0-6.63-.64-9.39-3.68-10.4v-1.29h19.33c20.99,0,25.78,10.4,25.78,17.86,0,11.51-8.28,21.26-27.16,21.26h-4.51v13.62c0,6.63.64,9.39,3.68,10.4v1.29h-17.12v-1.29ZM174.18,167.42c0-7.92-3.87-18.78-18.41-18.78-.92,0-2.21.09-2.85.18v35.99h4.05c12.06,0,17.21-7,17.21-17.4Z" style="fill: #fff; stroke-width: 0px;"/>
    <path d="M204.83,210.31c3.04-1.01,3.68-3.77,3.68-10.4v-51.09h-2.85c-8.19,0-12.33,2.3-15.74,9.66l-1.1-.18.55-11.14h47.96l.55,11.14-1.1.18c-3.41-7.36-7.55-9.66-15.74-9.66h-2.67v51.09c0,6.63.64,9.39,3.68,10.4v1.29h-17.21v-1.29Z" style="fill: #fff; stroke-width: 0px;"/>
    <path d="M244.32,211.6v-1.29c3.04-1.01,3.68-3.77,3.68-10.4v-41.06c0-6.63-.64-9.39-3.68-10.4v-1.29h44.18l1.01,12.98-1.2.28c-3.68-9.02-9.48-11.78-19.79-11.78h-10.77v27.62h8.84c11.23,0,14.45-2.21,15.92-7h1.29v15.46h-1.29c-1.47-4.79-4.69-7-15.92-7h-8.84v27.8c0,2.95,1.66,4.6,4.6,4.6h8.84c9.3,0,15.65-2.76,19.15-12.15l1.2.18-.64,13.44h-46.58Z" style="fill: #fff; stroke-width: 0px;"/>
    <path d="M299.54,210.31c3.04-1.01,3.68-3.77,3.68-10.4v-35.53c0-11.23-2.03-14.45-6.26-15.92v-1.29h13.81l22.74,37.74,21.63-37.74h13.07v1.29c-4.24,1.47-6.26,4.69-6.26,15.92v35.53c0,6.63.64,9.39,3.68,10.4v1.29h-17.12v-1.29c3.04-1.01,3.68-3.77,3.68-10.4v-44.55l-22.09,38.75h-2.12l-23.1-37.93v38.2c0,11.23,2.21,14.45,7,15.92v1.29h-12.33v-1.29Z" style="fill: #fff; stroke-width: 0px;"/>
    <path d="M377.78,211.6v-1.29c3.04-1.01,3.68-3.77,3.68-10.4v-41.06c0-6.63-.65-9.39-3.68-10.4v-1.29h22.74c15.1,0,20.62,4.69,20.62,12.15,0,6.26-3.96,11.97-15.56,13.99,15.19.46,22.92,7.46,23.01,16.66.18,10.77-8.19,21.63-30.84,21.63h-19.97ZM410.18,161.43c0-8.1-5.8-12.8-15.19-12.8h-3.77v24.39h8.19c6.72,0,10.77-5.16,10.77-11.6ZM417.64,193.38c0-11.05-6.17-18.87-19.88-18.87h-6.54v27.62c0,6.63.83,8.01,4.79,8.01h2.58c13.26,0,19.05-7,19.05-16.75Z" style="fill: #fff; stroke-width: 0px;"/>
    <path d="M436.87,211.6v-1.29c3.04-1.01,3.68-3.77,3.68-10.4v-41.06c0-6.63-.65-9.39-3.68-10.4v-1.29h44.18l1.01,12.98-1.2.28c-3.68-9.02-9.48-11.78-19.79-11.78h-10.77v27.62h8.84c11.23,0,14.45-2.21,15.93-7h1.29v15.46h-1.29c-1.47-4.79-4.69-7-15.93-7h-8.84v27.8c0,2.95,1.66,4.6,4.6,4.6h8.84c9.3,0,15.65-2.76,19.15-12.15l1.2.18-.65,13.44h-46.58Z" style="fill: #fff; stroke-width: 0px;"/>
    <path d="M525.51,196.51c-5.52-13.44-5.98-17.95-14.08-17.95h-5.43v21.36c0,6.63.64,9.39,3.68,10.4v1.29h-17.12v-1.29c3.04-1.01,3.68-3.77,3.68-10.4v-41.06c0-6.63-.65-9.39-3.68-10.4v-1.29h19.33c20.07,0,24.21,7.27,24.21,14.73,0,8.47-5.8,14.82-18.04,16.29,10.4,1.2,12.43,5.52,17.31,17.77,4.88,12.24,5.89,14.45,9.3,14.45.46,0,.92,0,1.38-.09v1.29c-2.12.55-5.06.64-6.63.64-7.64,0-9.48-4.97-13.9-15.74ZM526.34,164.1c0-7.46-4.79-15.47-16.29-15.47-1.29,0-2.67.09-4.05.28v28.17h5.89c10.49,0,14.45-5.89,14.45-12.98Z" style="fill: #fff; stroke-width: 0px;"/>
  </g>
</svg>