<?xml version="1.0" encoding="UTF-8"?>
<svg id="Capa_1" data-name="Capa 1" xmlns="http://www.w3.org/2000/svg" viewBox="0 0 572.27 222.75">
  <g>
    <path d="M17.54,213.54v1.42H1.74v-26.99h15.11v1.42H3.47v10.92h11.07v1.42H3.47v11.8h14.07Z" style="fill: #fff; stroke-width: 0px;"/>
    <path d="M27.65,205.58l5.73-6.92h1.96l-6.69,8.11,6.73,8.19h-2l-5.77-6.92-5.69,6.92h-2l6.69-8.11-6.77-8.19h2.15l5.65,6.92Z" style="fill: #fff; stroke-width: 0px;"/>
    <path d="M40.22,211.23v10.96l-1.42.5h-.15v-24.03h.88l.58,3.65c1.04-2.31,3.88-4.11,7-4.11,4.77,0,8.03,3.77,8.03,8.53s-3.27,8.69-8.15,8.69c-3.04,0-5.77-1.85-6.77-4.19ZM53.52,206.73c0-4.19-2.96-7.23-6.54-7.23s-6.73,2.69-6.73,7.23,3.27,7.38,6.84,7.38,6.42-3.27,6.42-7.38Z" style="fill: #fff; stroke-width: 0px;"/>
    <path d="M59.05,206.54c-.11,4.15,2.77,7.58,7.34,7.58,1.96,0,3.92-.58,5.57-1.65l.69,1.15c-1.62,1.23-4.04,1.81-6.54,1.81-5.27,0-8.69-4-8.69-8.81,0-5.15,3.92-8.42,8-8.42,3.73,0,7.46,2.57,7.54,8.34h-13.92ZM71.28,205.12c-.27-3.34-2.84-5.61-5.77-5.61-3.27,0-6.03,2.85-6.27,5.61h12.03Z" style="fill: #fff; stroke-width: 0px;"/>
    <path d="M76.61,198.66h.85l.54,2.73c.54-1.34,2.31-3.19,4.73-3.19,1.35,0,1.96.34,2.62.65l-.39,1.35-.19.08c-.58-.35-1.19-.58-2.5-.58-1.39,0-3.27,1.04-4.08,3.54v11.73h-1.58v-16.3Z" style="fill: #fff; stroke-width: 0px;"/>
    <path d="M89.65,191.28c.92,0,1.65.73,1.65,1.65s-.73,1.61-1.65,1.61-1.62-.69-1.62-1.61.73-1.65,1.62-1.65ZM88.88,198.66h1.58v16.3h-1.58v-16.3Z" style="fill: #fff; stroke-width: 0px;"/>
    <path d="M96.18,206.54c-.11,4.15,2.77,7.58,7.34,7.58,1.96,0,3.92-.58,5.57-1.65l.69,1.15c-1.62,1.23-4.04,1.81-6.54,1.81-5.27,0-8.69-4-8.69-8.81,0-5.15,3.92-8.42,8-8.42,3.73,0,7.46,2.57,7.54,8.34h-13.92ZM108.4,205.12c-.27-3.34-2.84-5.61-5.77-5.61-3.27,0-6.03,2.85-6.27,5.61h12.03Z" style="fill: #fff; stroke-width: 0px;"/>
    <path d="M115.25,201.43c1.27-2.08,3.85-3.27,6.19-3.27,4.27,0,7.27,3.04,7.27,7.38v9.42h-1.61v-9.42c0-4.19-3.15-5.96-5.77-5.96-2.19,0-6,1.77-6,5.96v9.42h-1.58v-16.3h.85l.65,2.77Z" style="fill: #fff; stroke-width: 0px;"/>
    <path d="M145.96,212l.96,1c-1.85,1.85-4.08,2.42-6.57,2.42-4.73,0-8.58-3.46-8.58-8.54s3.65-8.69,8.61-8.69c2.5,0,4.73,1.04,6.34,2.84l-1.04,1.04c-1.15-1.31-2.77-2.54-5.38-2.54-4.04,0-6.96,3.23-6.96,7.34,0,3.88,3.08,7.23,7.15,7.23,2.31,0,4.38-1.04,5.46-2.11Z" style="fill: #fff; stroke-width: 0px;"/>
    <path d="M150.26,206.54c-.12,4.15,2.77,7.58,7.34,7.58,1.96,0,3.92-.58,5.57-1.65l.69,1.15c-1.62,1.23-4.04,1.81-6.54,1.81-5.27,0-8.69-4-8.69-8.81,0-5.15,3.92-8.42,8-8.42,3.73,0,7.46,2.57,7.54,8.34h-13.92ZM162.49,205.12c-.27-3.34-2.84-5.61-5.77-5.61-3.27,0-6.03,2.85-6.26,5.61h12.03Z" style="fill: #fff; stroke-width: 0px;"/>
    <path d="M179.98,200.05v10.07c0,3.96,3.19,4.04,5.46,3.42l.23,1.31c-2.61.62-7.3.92-7.3-4.73v-10.07h-3.42v-.19l.19-1.19h3.23v-5.8l1.46-.46h.15v6.27h5.57v1.39h-5.57Z" style="fill: #fff; stroke-width: 0px;"/>
    <path d="M190.89,201.35c1.27-1.88,3.77-3.19,6.11-3.19,4.27,0,7.27,3.04,7.27,7.38v9.42h-1.61v-9.42c0-4.19-3.15-5.96-5.77-5.96-2.15,0-6,1.69-6,5.65v9.73h-1.58v-26.99l1.42-.46h.15v13.84Z" style="fill: #fff; stroke-width: 0px;"/>
    <path d="M208.96,206.54c-.11,4.15,2.77,7.58,7.34,7.58,1.96,0,3.92-.58,5.57-1.65l.69,1.15c-1.62,1.23-4.04,1.81-6.54,1.81-5.27,0-8.69-4-8.69-8.81,0-5.15,3.92-8.42,8-8.42,3.73,0,7.46,2.57,7.54,8.34h-13.92ZM221.18,205.12c-.27-3.34-2.84-5.61-5.77-5.61-3.27,0-6.03,2.85-6.27,5.61h12.03Z" style="fill: #fff; stroke-width: 0px;"/>
    <path d="M252.86,191.4h-8v23.57h-4.04v-23.57h-7.96v-3.42h19.99v3.42Z" style="fill: #fff; stroke-width: 0px;"/>
    <path d="M251.97,198.08h2.27l1.04,2.34c.62-1.42,2.46-2.81,4.34-2.81,1.27,0,2,.35,2.54.65l-.69,3.38-.23.08c-.5-.27-1.11-.5-2.19-.5-1.16,0-2.58.65-3.27,2.15v11.57h-3.8v-16.88Z" style="fill: #fff; stroke-width: 0px;"/>
    <path d="M277.53,212.73c-1.15,1.65-3.42,2.77-5.84,2.77-3.92,0-7.07-2.77-7.07-6.96v-10.46h3.85v9.88c0,2.88,2.08,4.38,4.27,4.38,1.85,0,4.38-1.5,4.38-4.34v-9.92h3.8v16.88h-2.46l-.92-2.23Z" style="fill: #fff; stroke-width: 0px;"/>
    <path d="M287.6,207.39c.15,2.42,2.34,4.96,6.03,4.96,1.88,0,3.85-.77,5.11-1.54l1.42,2.65c-1.81,1.35-4.61,2-6.96,2-5.81,0-9.46-4.11-9.46-8.99,0-5.54,4.23-8.88,8.65-8.88s8.57,3.54,8.19,9.8h-12.99ZM296.83,204.73c-.12-2.61-2.31-4.15-4.38-4.15-2.42,0-4.42,2.08-4.61,4.15h9Z" style="fill: #fff; stroke-width: 0px;"/>
    <path d="M312.66,214.96v-27.06l1.16-.31,11.84,15.49,11.8-15.49,1.15.31v27.06h-4v-17.57l-8.77,11.69h-.42l-8.77-11.53v17.41h-4Z" style="fill: #fff; stroke-width: 0px;"/>
    <path d="M345.68,207.39c.15,2.42,2.34,4.96,6.03,4.96,1.88,0,3.85-.77,5.11-1.54l1.42,2.65c-1.81,1.35-4.61,2-6.96,2-5.81,0-9.46-4.11-9.46-8.99,0-5.54,4.23-8.88,8.65-8.88s8.57,3.54,8.19,9.8h-12.99ZM354.91,204.73c-.12-2.61-2.31-4.15-4.38-4.15-2.42,0-4.42,2.08-4.61,4.15h9Z" style="fill: #fff; stroke-width: 0px;"/>
    <path d="M369.01,203.74l4.54-5.65h4.38l-6.73,8.46,6.73,8.42h-4.46l-4.5-5.54c-1.5,1.85-3,3.69-4.46,5.54h-4.5l6.73-8.38c-2.27-2.81-4.5-5.65-6.77-8.5h4.54l4.5,5.65Z" style="fill: #fff; stroke-width: 0px;"/>
    <path d="M382.81,189.47c1.5,0,2.73,1.23,2.73,2.73s-1.23,2.69-2.73,2.69c-1.42,0-2.69-1.15-2.69-2.69s1.27-2.73,2.69-2.73ZM380.96,198.08h3.77v16.88h-3.77v-16.88Z" style="fill: #fff; stroke-width: 0px;"/>
    <path d="M402.07,210.35l2,2.42c-2,2.04-4.46,2.69-7.07,2.69-5.38,0-9.07-4.07-9.07-8.84,0-5.15,3.81-9.03,9.07-9.03,2.77,0,5.23,1,7.07,3.15l-2.27,2.27c-.85-1.04-2.38-2.27-4.5-2.27-2.96,0-5.54,2.35-5.54,5.84,0,3.31,2.61,5.65,5.69,5.65,1.85,0,3.58-.85,4.61-1.88Z" style="fill: #fff; stroke-width: 0px;"/>
    <path d="M421.56,214.96h-2.27l-.92-2.27c-1.19,1.65-3.38,2.77-6.42,2.77-3.88,0-6.42-2.46-6.42-5.57,0-3.5,2.73-5.77,6.61-5.77,2.85,0,4.96,1.31,5.8,2.08v-.85c0-2.84-2.08-4.73-4.77-4.73-2.31,0-3.5.58-4.46.92l-.92-2.85c1.04-.42,3.5-1.15,5.8-1.11,4.96.08,8.04,3.19,8,7.88l-.04,9.5ZM417.94,208.73c-.81-.85-2.69-2.08-4.96-2.04-2.04,0-3.65,1.23-3.65,3s1.69,2.96,3.57,2.96c2.23,0,4.73-1.61,5.04-3.5v-.42Z" style="fill: #fff; stroke-width: 0px;"/>
    <path d="M428.44,200.35c1.11-1.65,3.42-2.77,5.84-2.77,3.92,0,7.15,2.77,7.15,6.96v10.42h-3.8v-9.88c0-2.77-2.15-4.38-4.34-4.38-1.85,0-4.42,1.5-4.42,4.34v9.92h-3.8v-16.88h2.27l1.12,2.27Z" style="fill: #fff; stroke-width: 0px;"/>
    <path d="M477.26,211.35c-1.85,1.81-4.85,4.15-10.65,4.15-7.96,0-14.03-6.11-14.03-14.07,0-8.46,6.73-14,14.23-14,5.34,0,8.46,2.35,10.26,3.96l-2.42,2.88c-1.54-1.42-4.27-3.27-7.77-3.27-5.57,0-9.92,4.57-9.92,10.42s4.03,10.46,9.96,10.46c3.19,0,6.27-1.62,7.88-3.19l2.46,2.65Z" style="fill: #fff; stroke-width: 0px;"/>
    <path d="M492.82,212.73c-1.15,1.65-3.42,2.77-5.84,2.77-3.92,0-7.07-2.77-7.07-6.96v-10.46h3.85v9.88c0,2.88,2.08,4.38,4.27,4.38,1.85,0,4.38-1.5,4.38-4.34v-9.92h3.8v16.88h-2.46l-.92-2.23Z" style="fill: #fff; stroke-width: 0px;"/>
    <path d="M504.39,214.96h-3.81v-26.99l3.46-.46h.35v27.45Z" style="fill: #fff; stroke-width: 0px;"/>
    <path d="M514.3,201.12v7.96c0,2.23,1.38,2.96,2.8,2.96.54,0,1.08-.08,1.65-.23l.46,3.04c-1.04.19-2.12.35-3.11.35-3.85,0-5.61-2.46-5.61-6.23v-7.84h-3.08v-.39l.39-2.65h2.69v-5.54l3.46-.54h.35v6.07h4.8v3.04h-4.8Z" style="fill: #fff; stroke-width: 0px;"/>
    <path d="M534.98,212.73c-1.15,1.65-3.42,2.77-5.84,2.77-3.92,0-7.07-2.77-7.07-6.96v-10.46h3.85v9.88c0,2.88,2.08,4.38,4.27,4.38,1.85,0,4.38-1.5,4.38-4.34v-9.92h3.8v16.88h-2.46l-.92-2.23Z" style="fill: #fff; stroke-width: 0px;"/>
    <path d="M542.36,198.08h2.27l1.04,2.34c.62-1.42,2.46-2.81,4.34-2.81,1.27,0,2,.35,2.54.65l-.69,3.38-.23.08c-.5-.27-1.12-.5-2.19-.5-1.16,0-2.58.65-3.27,2.15v11.57h-3.8v-16.88Z" style="fill: #fff; stroke-width: 0px;"/>
    <path d="M557.5,207.39c.15,2.42,2.34,4.96,6.03,4.96,1.88,0,3.85-.77,5.11-1.54l1.42,2.65c-1.81,1.35-4.61,2-6.96,2-5.8,0-9.46-4.11-9.46-8.99,0-5.54,4.23-8.88,8.65-8.88s8.57,3.54,8.19,9.8h-12.99ZM566.73,204.73c-.12-2.61-2.31-4.15-4.38-4.15-2.42,0-4.42,2.08-4.61,4.15h9Z" style="fill: #fff; stroke-width: 0px;"/>
  </g>
  <g>
    <path d="M205.64,53.78h-5.32V6.41l-17.14,47.37h-.16l-16.9-40.07v32.06c0,4.21.39,6.43,1.03,8.01h-3.25V.06h2.22l18.41,43.56L200.33.06h5.32v53.72Z" style="fill: #fff; stroke-width: 0px;"/>
    <path d="M231.11.06h1.51l15.95,53.72h-5.48l-3.89-12.93h-17.93l-.87,2.94c-1.75,5.87-2.14,8.17-1.98,10h-3.25L231.11.06ZM221.99,38.63h16.58l-8.33-27.93-8.25,27.93Z" style="fill: #fff; stroke-width: 0px;"/>
    <path d="M255.24,53.78V.06h8.25c15.79,0,25.55,11.27,25.55,26.66s-9.76,27.06-25.55,27.06h-8.25ZM263.49,51.56c15.79,0,20.07-13.57,20.07-24.84s-4.12-24.44-20.07-24.44h-2.94v49.28h2.94Z" style="fill: #fff; stroke-width: 0px;"/>
    <path d="M329.2,3.32c-1.59-.63-3.81-1.03-8.09-1.03h-16.9v22.54h21.5v2.22h-21.5v24.52h15c5.56,0,8.17-.32,10-1.03v3.25h-30.31V.06h30.31v3.25Z" style="fill: #fff; stroke-width: 0px;"/>
    <path d="M357.13,53.78V.06h5.32v53.72h-5.32Z" style="fill: #fff; stroke-width: 0px;"/>
    <path d="M403.95,43.39V8.16c0-4.29-.4-6.51-1.03-8.09h3.25v53.72h-2.22l-26.26-43.4v33.41c0,5.55.32,8.17,1.03,10h-3.25V.06h2.22l26.26,43.32Z" style="fill: #fff; stroke-width: 0px;"/>
    <path d="M7.72,166.01c4.34-1.45,5.26-5.39,5.26-14.85v-50.73c0-16.03-2.89-20.63-8.94-22.73v-1.84h19.71l32.46,53.88,30.88-53.88h18.66v1.84c-6.04,2.1-8.94,6.7-8.94,22.73v50.73c0,9.46.92,13.4,5.26,14.85v1.84h-24.44v-1.84c4.34-1.45,5.26-5.39,5.26-14.85v-63.61l-31.54,55.33h-3.02L15.34,88.74v54.54c0,16.03,3.15,20.63,9.99,22.73v1.84H7.72v-1.84Z" style="fill: #fff; stroke-width: 0px;"/>
    <path d="M129.95,167.85v-1.84c4.34-1.45,5.26-5.39,5.26-14.85v-58.61c0-9.46-.92-13.41-5.26-14.85v-1.84h63.08l1.45,18.53-1.71.39c-5.26-12.88-13.53-16.82-28.25-16.82h-15.38v39.42h12.62c16.03,0,20.63-3.15,22.73-9.99h1.84v22.08h-1.84c-2.1-6.83-6.7-9.99-22.73-9.99h-12.62v39.69c0,4.21,2.37,6.57,6.57,6.57h12.61c13.27,0,22.34-3.94,27.33-17.35l1.71.26-.92,19.19h-66.5Z" style="fill: #fff; stroke-width: 0px;"/>
    <path d="M266.89,166.01c4.34-1.45,1.58-4.34-3.42-12.49l-16.82-27.99-18.92,28.39c-5.26,7.89-4.6,11.04,1.18,12.09v1.84h-16.95v-1.84c3.81-1.31,7.75-4.21,13.01-12.09l20.37-30.62-19.98-33.12c-4.99-8.15-8.67-11.17-11.56-12.48v-1.84h24.44v1.84c-4.33,1.44-1.58,4.34,3.42,12.48l14.19,23.52,15.9-23.92c5.26-7.88,4.6-11.04-1.18-12.09v-1.84h16.95v1.84c-3.81,1.31-7.75,4.21-13.01,12.09l-17.35,26.15,22.6,37.58c4.99,8.15,8.67,11.17,11.57,12.49v1.84h-24.44v-1.84Z" style="fill: #fff; stroke-width: 0px;"/>
    <path d="M307.12,166.01c4.34-1.45,5.26-5.39,5.26-14.85v-58.61c0-9.46-.92-13.41-5.26-14.85v-1.84h24.44v1.84c-4.34,1.44-5.26,5.39-5.26,14.85v58.61c0,9.46.92,13.4,5.26,14.85v1.84h-24.44v-1.84Z" style="fill: #fff; stroke-width: 0px;"/>
    <path d="M356.67,123.43c0-26.55,21.03-48.49,53.22-48.49,9.73,0,23.26,1.84,30.09,6.44l.53,17.35-1.58.39c-5.39-13.54-18.93-21.68-32.46-21.68-21.03,0-35.88,13.93-35.88,40.08s14.98,48.89,40.61,48.89c14.72,0,24.84-8.94,29.57-22.6l1.71.26-2.1,18.79c-6.97,3.15-16.95,6.31-32.99,6.31-31.41,0-50.73-16.3-50.73-45.73Z" style="fill: #fff; stroke-width: 0px;"/>
    <path d="M467.2,121.46c0-26.02,19.19-46.65,47.05-46.65,22.21,0,46.92,15.24,46.92,47.44s-24.84,46.91-46.92,46.91-47.05-14.72-47.05-47.7ZM547.89,132.63c-1.97-27.99-17.74-54.41-40.47-54.41-17.87,0-27.99,13.93-26.55,35.22,1.84,26.28,18.53,51.65,40.87,51.65,20.1,0,27.33-15.11,26.15-32.46Z" style="fill: #fff; stroke-width: 0px;"/>
  </g>
</svg>