<?xml version="1.0" encoding="utf-8"?>
<!-- Generator: Adobe Illustrator 27.9.0, SVG Export Plug-In . SVG Version: 6.00 Build 0)  -->
<svg version="1.1" id="Capa_1" xmlns="http://www.w3.org/2000/svg" xmlns:xlink="http://www.w3.org/1999/xlink" x="0px" y="0px"
	 viewBox="0 0 1080 735.2" style="enable-background:new 0 0 1080 735.2;" xml:space="preserve">
<style type="text/css">
	.st0{fill:#1D1D1B;}
	.st1{fill-rule:evenodd;clip-rule:evenodd;fill:#1D1D1B;}
</style>
<g id="Capa_1-2">
	<g>
		<g>
			<g>
				<path class="st0" d="M221.7,483.5c-0.7-0.1-1.3-0.1-2,0c-4.5,1-6.8,3-6.8,5.6c0,1.7,0.8,3.9,4.5,4.6h0.4
					c1.1-0.1,2.1-0.3,3.1-0.7c2.5-0.7,4.3-3,4.4-5.6l0,0C224.9,484,222.9,483.5,221.7,483.5z"/>
				<g>
					<path class="st0" d="M232,443.9c4.9-4.9,10.2-9.4,15.8-13.4c2.8-2,5.7-3.9,8.7-5.6l2.3-1.2c0.4,0,0.9-0.4,1.3-0.7l0,0
						c0.3-0.1,0.5-0.3,0.7-0.6V422l0.5-0.6c0.2-0.3,0.3-0.7,0.4-1v-1.9c-0.1-0.5-0.3-0.9-0.7-1.3c-0.3-0.3-0.7-0.6-1.1-0.9l0,0
						c-0.4-0.1-0.9-0.1-1.3,0l0,0c-1,0.1-2,0.4-2.9,1l0,0l-1.4,0.8l-5.6,3.3c-9.4,5.5-17.9,12.3-25.4,20.2
						c-4.8,4.8-9.8,9.5-14.3,14.5l-13.3,15.8c-4.4,5.2-8.2,10.8-12.3,16.3l-12,16.4l-12,16.4c-3.7,5.2-7.7,10.2-12.2,14.9
						c-1.6-5.9-1.8-12.1-0.7-18.1l2.5-14.4c0.8-4.9,1.9-9.8,3.3-14.6c2.5-9.4,5.9-18.6,10-27.5l0,0c0.3-0.6,0.6-1.2,0.8-1.8
						c0.3-0.8,0.4-1.6,0.4-2.4c-0.1-1.7-0.8-3.2-1.9-4.4c-1.2-1.2-2.8-1.9-4.4-2c-1.6,0-3.2,0.5-4.5,1.5c-0.7,0.5-1.2,1.2-1.6,1.9
						l-0.9,1.9c-0.6,1.2-1.1,2.5-1.7,3.7c-1.1,2.6-2,5.1-2.8,7.7l-4.8,15.7c-1.3,5.3-2.5,10.5-3.7,15.9c-2.2,10.6-3.2,21.5-2.8,32.4
						c0,5.8,2.5,11.2,6.9,14.9c2.5,1.7,5.5,2.2,8.4,1.5c2.6-1,5-2.7,6.9-4.8l0,0c4.5-5.3,8.8-10.8,12.7-16.5
						c4-5.6,8.1-11.2,12.1-16.8l12-16.8l11.9-16.8C213.4,464.7,222.3,454,232,443.9L232,443.9z M261.4,422.1H261H261.4z"/>
					<path class="st0" d="M376.8,513c-1.3-0.5-2.7-0.3-3.9,0.4c-5.1,4.7-11.8,7.3-18.7,7.2c-4.9-0.3-8.9-3.8-10.1-8.5
						c-0.2-3.6-0.6-7.3-1.2-10.9c-1-3.7-4.3-6.3-8.1-6.6l-2.5-0.3l0,0c-5.7-0.6-11.4,1-16,4.5c-2.3,2-4.4,4.2-6.2,6.7l-2.9,2.7
						c-4.2,3.8-8.7,7.1-13.5,10.1c-1.2,0.7-2.5,1.3-3.8,1.7c-1.2,0.4-2.7,0.7-3.5,0c-0.7-0.7-0.3-0.7-0.4-1.5
						c-0.1-0.7-0.1-1.4,0-2.1c0.1-1.4,0.4-2.8,0.7-4.1c1.1-5.6,6.1-8.8,10.3-12.6c4.1-3.8,7.7-8.5,11.5-12.7
						c4-4.1,7.5-8.7,10.3-13.8c1.4-2.7,2-5.6,1.8-8.6c-0.1-1.8-1.2-3.3-2.8-4c-1.5-0.4-3.2-0.4-4.7,0c-2.8,0.8-5.5,2.3-7.6,4.3
						c-2.2,1.9-4.3,3.9-6.1,6.2c-3.7,4.4-7.1,9.1-10.1,13.9c-2.9,4.8-5.5,9.8-7.9,14.9c-1.2,2.5-2.8,4.8-4.7,6.7c-2,2-4,4-6.1,5.6
						c-4.1,3.8-8.6,7.2-13.3,10.3c-4.5,3.3-9.6,5.5-15,6.7c-1.2,0.2-2.4,0-3.5-0.5c-0.9-0.7-1.4-1.8-1.5-2.9c-0.2-2.7,0.1-5.4,0.8-8
						l2.6-8l0.6-2c0.2-0.5,0.5-1,1-1.5c0.8-0.9,2-1.7,3.1-2.7c4-4,8.4-7.9,12.2-12c3.8-4.1,7.7-8.4,11.2-12.7
						c3.5-4.3,7.5-8.4,11.1-12.6c1.8-2.2,3.6-4.5,5.2-6.9c1.7-2.4,3-5.2,3.9-8c0.5-1.7,0.4-3.5-0.4-5c-0.3-0.4-0.6-0.8-0.9-1.1
						c-0.3-0.3-0.7-0.6-1.1-0.8c-0.7-0.5-1.5-0.8-2.4-1c-1.6-0.2-3.2,0-4.8,0.5c-1.4,0.4-2.8,1-4.1,1.7c-5.1,2.8-9.5,6.6-13.1,11.2
						c-7.3,8.8-13.9,18.2-19.7,28c-2.7,5.1-5.6,9.6-7.8,14.9c-0.3,0.7-2.2,6.1-3.8,10.4c-8.4,7.4-14.9,10.9-19.4,11.2
						c-2.5,0-0.7-5.6,0.8-8.1c1.5-2.5,4.2-9.9,4.2-9.9c0-2-1.5-3.7-3.5-3.8h-0.6c-1.1,0-2.1,0.4-2.9,1.2c-0.7,1.2-1.3,2.4-4.4,8.6
						l-0.7,1.6c-1.3,3.1-2,6.4-2.2,9.8c-0.4,4.3,2.7,8.2,7.1,8.7c0.6,0.1,1.2,0.1,1.8,0c6.1-0.4,12-2.6,16.8-6.3v0.7
						c-0.1,3.3,0.6,6.6,2.1,9.5c1.5,2.9,4.2,5.1,7.5,5.9c3.2,0.6,6.6,0.3,9.7-0.8c6-1.9,11.7-4.7,16.8-8.4c2.6-1.8,5.1-3.8,7.5-5.9
						c1.2-1,2.4-2.1,3.5-3.2c1.2-1.1,1.1-1,1.7-1.5c-0.2,1.2-0.1,2.4,0.3,3.6c0.7,2,2.1,3.6,3.9,4.6c3.5,2,7.8,2.3,11.6,1
						c3.7-1.3,7.1-3.1,10.1-5.6c1.3-1.1,2.6-2.1,3.8-3.3c1.2,4.5,5.1,7.8,9.7,8.2l0,0c6.8,0.3,13.2-2.6,17.4-8l2.5-3.5
						c2.8,7,9.3,11.8,16.8,12.3h4c6-0.7,11.7-2.7,16.8-6c3.6-2,5.6-4,5.6-6C379.2,514.8,376.8,513.1,376.8,513L376.8,513z
						 M287.5,501.5c2.9-5.9,6.3-11.5,10.1-16.8c5-6.4,10.6-12.3,16.8-17.6c1.5,0-7.7,11.5-13.7,19.4
						C296.9,492,292.5,497,287.5,501.5L287.5,501.5z M248.3,492.9c3.7-7.6,8.1-14.8,13.1-21.6c6-7.5,12.8-14.3,20.3-20.3
						c1.6-0.4-9.5,14-16.8,23.6c-4.9,6.5-10.4,12.7-16.3,18.3H248.3L248.3,492.9z M331.3,508.1c-5.3,8.2-10,12.3-13.8,11.9h-0.7
						c-1.9-0.8-2.9-2.9-2.4-4.9c0.3-1.9,1.2-3.7,2.6-5l0,0c3.1-5.2,9-8.1,15.1-7.3h1.6c-0.5,1.9-1.3,3.7-2.2,5.4h-0.2L331.3,508.1
						L331.3,508.1z"/>
				</g>
			</g>
			<path class="st0" d="M551.2,542.5c-2.1-40,17.5-80.6,50.6-103.1c21.5-15.5,48.2-25.3,75-23.7c3.1,0.2,6.2,0.6,9.2,1.4
				c10.3,2.6,18.9,11.2,15.5,22.6c-2.7,8.7-9.6,14.9-16.4,20.1c-15.6,11.5-33.6,19.1-51.4,26c-4.5,1.5-7-4.9-2.6-6.8
				c11.6-4.6,22.9-9.8,33.6-15.9c7.9-4.5,15.5-9.5,21.8-16c4.5-4.7,10.3-12.7,3.8-17.8c-3.9-3.1-9.9-4-14.9-4
				c-35.7-0.6-71.3,19.9-91.8,48.7c-10.2,14.6-16.3,32-18.2,49.7c-0.6,5.8-0.9,11.6-0.4,17.3c0.4,3.8-2.4,7.3-6.2,7.6
				C554.9,549.2,551.5,546.4,551.2,542.5L551.2,542.5L551.2,542.5z"/>
			<path class="st0" d="M869.2,497.2c2.9,9.3,7.2,19.2,4.4,29.2l-7.6-2.2c1.4-4.2,3.5-7.3,6-10.7c14.8-19.4,38.7-27.3,61.9-19.1
				c3.6,1.2,7,2.8,10.4,4.4c1.2,0.6,1.6,2,1.1,3.1c-0.6,1.1-1.9,1.6-3.1,1.1c-3.3-1.4-6.5-2.8-9.9-3.8c-9.8-3-20.7-3.3-30.4,0.2
				c-12,4.3-23.9,14.8-28.2,26.9c-1.5,5-8.8,3-7.7-2c0.4-1.7,0.5-3.6,0.3-5.6c-0.4-4.1-1.8-8.3-3.2-12.3c-0.8-2.1-1.6-4.2-2.4-6.5
				C858.9,494.2,867.3,491.5,869.2,497.2L869.2,497.2z"/>
			<path class="st0" d="M694.8,539.3c-2.2,0-4.4-0.4-6.6-1.2c-3.4-1.3-8-4.8-8.4-13.8c-9.2,4.1-15.8,0.8-19.7-2.8
				c-5.6-5.1-7.6-6.1-8.4-6.1c-0.9,0-3.5,2.8-5.8,5.3c-0.5,0.5-1,1.1-1.6,1.6c-5.2,5.5-12,7.5-16.5,4.8c-1.9-1.1-6.1-4.7-3.3-13.8
				c0.9-2.9,2.3-5.7,4.2-8.4c13.9-19.9,28.6-14.2,29.2-14l-3.3,8.3h0.1c-0.4-0.1-9-3-18.6,10.8c-1.4,1.9-2.3,3.9-2.9,5.9
				c-0.6,1.9-0.6,2.9-0.5,3.4c1-0.1,3.1-0.9,5.3-3.2c0.5-0.6,1-1.1,1.5-1.6c4.3-4.6,7.4-7.9,11.9-8.1s8.7,2.8,14.9,8.4
				c3.9,3.5,7.9,3.4,15-1.8c0.4-1.7,0.9-3.6,1.5-5.5c3.9-12.3,11.7-27,20.3-38.4c7.3-9.6,18-20.6,27.5-18.2c2,0.5,3.5,2.1,4,4.2
				c2,9-19.6,40.4-28.8,48.1c-2.2,1.8-4.5,4-7,6.4c-3,2.8-6.2,5.9-9.6,8.6c-1,6.2-0.3,10.5,2.2,11.4c9.3,3.6,22.4-9.4,35.1-21.9
				c3.4-3.4,7-6.9,10.5-10.1c3.7-3.3,7.1-6.4,10.6-3.7c3.4,2.6,1.5,6.2-0.8,10.8c-3.1,6-4.8,10.2-5,12.3c3.1-2.1,8.6-8.4,11.5-11.7
				c3.9-4.5,7.3-8.4,10-10.2c2.5-1.6,5.9-1.4,8.2,0.5c2.2,1.8,2.9,4.7,1.8,7.4c-1.7,4.1-2.9,7.3-3.8,9.8c1-1,2-2,3-2.9
				c6.8-6.8,13.8-13.7,19.6-15.7c1.9-0.6,3.8-0.3,5.2,0.9c2.9,2.4,2.4,6.4,1.6,12.6c-0.3,2.4-0.9,7.1-0.6,9.4c0.9-0.4,2.3-1.2,4.6-3
				c3.7-2.9,4.6-3.7,7.3-6c1.8-1.6,3.9-3.3,6.6-5.4c2-1.5,4.8-1.2,6.3,0.8s1.2,4.8-0.8,6.3c-2.5,1.9-4.4,3.5-6.2,5
				c-3,2.6-4.1,3.5-7.7,6.3c-4.4,3.4-10,7-14.8,4.3c-5.5-3.1-4.5-11.1-3.5-18.9c0-0.3,0.1-0.5,0.1-0.8c-3.6,2.9-7.9,7.1-11.3,10.6
				c-8.9,8.8-13.4,13.3-18,10.2c-3.3-2.2-3.5-6,0.1-16.3c-0.3,0.3-0.6,0.7-0.9,1c-8.6,9.9-14.2,15.8-20,15.4
				c-2.3-0.2-4.4-1.4-5.7-3.6c-1.7-2.7-1.7-6-0.9-9.5c-0.2,0.2-0.4,0.4-0.5,0.5C720.2,526.5,707.4,539.3,694.8,539.3L694.8,539.3z
				 M724.5,460.6c-3.2,1.7-8.1,5.7-14.4,14c-6,7.9-11.6,17.5-15.5,26.6c1.8-1.7,3.6-3.4,5.4-4.9c4.1-3.4,10.5-11.6,16.4-20.8
				C720.4,469.2,723.1,464.1,724.5,460.6L724.5,460.6z"/>
			<path class="st0" d="M823.6,528.5c-1.8,0-3.3-0.4-4.5-0.9c-4.6-2.1-6.3-6.8-6.5-7.3c-5.2-16,14.2-26.2,19.3-27.9
				c4.1-1.3,7.5-1.3,10.3,0.1c2.3,1.2,3.9,3.2,4.8,6c0.3,1.1,0.2,2.3-0.2,3.2l0,0c0,0.1-0.1,0.2-0.2,0.3l0,0
				c-0.1,0.1-0.1,0.2-0.2,0.3c-0.4,0.6-0.8,1.3-1.2,2.1c-0.2,0.5-0.5,1-0.7,1.5c-0.5,1-0.9,2-1.4,3c-1.5,3.9-2.2,7.9-0.2,9.2
				c1,0.6,2.4,0.7,3.8,0.2c3.6-1.3,10.1-5.8,13.9-20.7c0.6-2.4,3-3.9,5.4-3.2c2.4,0.6,3.8,3,3.2,5.4c-2,8.1-7.3,22.4-19.4,26.9
				c-4,1.5-8.5,1.1-11.8-1.1c-1-0.6-2.1-1.6-3.1-3c-1.8,2.2-3.8,3.8-6,4.8C827,528.1,825.2,528.5,823.6,528.5L823.6,528.5z
				 M821.1,517.3c0.2,0.4,0.8,1.6,1.7,2c0.6,0.3,1.5,0.2,2.7-0.3c3.1-1.3,7.1-8.9,9.6-14c0.7-1.7,1.4-3.2,2.1-4.4
				c0.1-0.1,0.1-0.2,0.1-0.3c-0.6,0-1.4,0.2-2.5,0.5C832.5,501.6,818.4,508.6,821.1,517.3L821.1,517.3z"/>
			<path class="st0" d="M539.3,441.7c-0.1-1.1-0.3-2.1-0.6-3c-0.3-1-0.9-1.8-1.5-2.4c-0.7-0.7-1.7-1-2.8-1c-1.5,0-3.2,0.9-5.4,2.9
				c-2,1.8-4.2,4.3-6.7,7.4c-2.4,3.1-5,6.6-7.7,10.7c-2.7,4-5.3,8.4-8,12.9c-2.6,4.5-5.1,9.2-7.5,13.9c-2.4,4.7-4.5,9.4-6.3,13.9
				c-1.1,2.7-2.1,5.4-2.9,7.9c-0.2,0.7-0.5,1.4-0.7,2.1c-0.9,0.7-1.9,1.5-3.2,2.5c-1.5,1.1-3.2,2.2-5.1,3.5
				c-1.9,1.2-3.9,2.4-6.1,3.5c-2.2,1.1-4.4,2-6.7,2.8c-2.3,0.8-4.5,1.3-6.8,1.5c-0.8,0-1.5-0.1-2.2-0.3c-0.7-0.2-1.4-0.5-1.9-0.8
				c-0.6-0.3-1-0.8-1.4-1.3s-0.5-1.1-0.5-1.8c0-0.4,0-0.9,0.1-1.3c0-0.5,0.1-0.9,0.2-1.3c-0.1,0.4-0.2,0.8-0.2,1.2
				c1.2,0.5,2.5,0.8,3.9,1c0.2,0,0.3,0.1,0.5,0.1h0.3c0.4,0,0.9,0.1,1.4,0.1c0.6,0,1.2,0,1.9-0.1h0.1c1.7-0.1,3.5-0.5,5.4-1.2
				c2-0.7,3.9-1.7,5.6-3c1.8-1.3,3.3-2.8,4.6-4.5c1.3-1.8,2.2-3.9,2.5-6.1c0.2-1.3,0-2.6-0.3-3.8c-0.4-1.2-1-2.3-1.9-3.2
				c-0.9-0.9-2-1.5-3.3-1.9c-1-0.3-2-0.5-3.2-0.5c-0.4,0-0.9,0-1.3,0.1c-2.6,0.3-5,0.9-7.3,1.9c-2.2,1-4.3,2.3-6.1,3.8
				c-1.8,1.5-3.4,3.1-4.8,4.9c-0.4,0.5-0.8,1-1.2,1.5c-0.5,0.3-0.9,0.7-1.4,1.1l-0.1,0.1l-0.6,0.7c-0.5,0.6-1.3,1.4-2.4,2.5
				s-2.3,2.4-3.7,3.7c-1.4,1.4-2.8,2.8-4.4,4.2c-1.5,1.4-3,2.7-4.5,3.9c-1.4,1.2-2.8,2.2-4.1,3c-0.9,0.6-1.5,0.9-2,1.1
				c0-0.3-0.1-0.7-0.1-1.2c0-1.6,0.3-3.7,0.9-6.3c0.6-2.6,1.4-5.4,2.4-8.6l2.3-2.5c1.5-1.7,3.3-3.7,5.5-6c2.1-2.3,4.4-4.9,6.7-7.8
				c2.3-2.8,4.6-5.9,6.9-9.1s4.4-6.5,6.3-9.8s3.5-6.7,4.8-10.1s2.2-6.8,2.5-10.1c0.2-1.6,0.1-3.1-0.1-4.6c-0.2-1.4-0.6-2.7-1.1-3.8
				c-0.5-1.1-1.2-2.1-2-2.8c-0.9-0.8-1.9-1.3-3-1.4h-0.3c-1.5,0-3.2,0.8-5,2.4c-1.7,1.5-3.6,3.7-5.5,6.5c-1.9,2.7-3.9,5.9-5.9,9.6
				c-2,3.6-4,7.5-6,11.6s-3.9,8.4-5.8,12.7c-1.5,3.5-2.9,7-4.3,10.4c-0.6-0.8-1.5-1.6-2.5-2.2c-1.5-1-3.6-1.5-6.2-1.5
				c-0.6,0-1.1,0-1.7,0.1c-2,0.2-3.9,0.7-5.8,1.7c-1.8,1-3.5,2.2-5.2,3.7c-1.6,1.4-3.1,3.1-4.5,4.9s-2.6,3.6-3.6,5.4
				s-1.9,3.5-2.5,5.2c-0.7,1.7-1.1,3.2-1.3,4.4c-0.1,0.4-0.1,0.9-0.1,1.3v1.3c0,1.8,0.2,3.3,0.7,4.6s1.2,2.4,2.1,3.2
				c0.9,0.8,2,1.4,3.2,1.8c1.2,0.4,2.5,0.6,3.9,0.7h0.9c1.2,0,2.5-0.2,3.8-0.5c1.5-0.4,3-1,4.5-1.7c1.4-0.7,2.9-1.6,4.2-2.6
				c0.5-0.3,0.9-0.7,1.4-1c0,0.2-0.1,0.4-0.1,0.7c-0.1,1.1-0.1,2.1,0,2.8c0,0.2,0,0.3,0.1,0.5v0.1c0.1,0.6,0.2,1.4,0.4,2.2
				c0.2,0.9,0.5,1.8,1,2.6c0.5,0.9,1.3,1.6,2.3,2.2c1,0.6,2.3,0.9,3.9,0.9s3.4-0.6,5.5-1.8c1.9-1.1,4-2.5,6.1-4.2s4.2-3.5,6.3-5.5
				c0.8-0.8,1.5-1.5,2.3-2.2c0.2,1,0.7,2,1.3,3c0.8,1.3,2.1,2.5,3.9,3.4c1.8,1,4.1,1.4,7.3,1.5h0.5c2.2,0,4.5-0.3,6.8-0.9
				c2.4-0.6,4.8-1.4,7.2-2.5c2.3-1,4.6-2.2,6.8-3.5c1.9-1.1,3.7-2.3,5.4-3.5c-0.1,0.7-0.1,1.4-0.1,2c0,1.3,0.1,2.5,0.3,3.7
				c0.2,1.2,0.6,2.3,1.2,3.2c0,0.1,0.1,0.1,0.2,0.2c1,1.8,2.3,3.2,3.8,4c1.5,0.9,3.3,1.3,5.1,1.3c2.1,0,4.4-0.5,6.7-1.6
				c2.3-1,4.6-2.3,6.9-3.8c2.3-1.5,4.5-3.2,6.7-5c2.1-1.8,4.1-3.6,5.9-5.3c1.8-1.7,3.3-3.3,4.5-4.7c1.3-1.4,2.1-2.4,2.6-3
				c0.6-0.8,0.7-1.8,0.1-2.8c-0.4-0.7-1-1.3-1.7-1.9c-0.7-0.5-1.4-1-2.1-1.2c-0.4-0.2-0.8-0.3-1.2-0.3c-0.7,0-1.1,0.3-1.3,0.5
				l-0.1,0.1c-0.4,0.6-1.2,1.6-2.4,2.9c-1.1,1.3-2.5,2.7-4,4.2c-1.5,1.5-3.2,3.1-5,4.7c-1.8,1.6-3.6,3-5.4,4.4
				c-1.8,1.3-3.5,2.3-5.2,3.1c-1.6,0.8-3,1.1-4.2,1.1c-0.8,0-1.3-0.3-1.7-0.9c-0.4-0.9-0.6-1.9-0.6-3.1c0-2,0.4-4.4,1.1-7.1
				c0.7-2.7,1.7-5.6,2.9-8.8c3.7-2.6,7.2-5.7,10.5-9.3c3.4-3.6,6.6-7.5,9.5-11.5c2.9-4,5.6-8.1,7.9-12.1s4.4-7.8,6.1-11.3
				s3-6.6,4-9.2c1-2.7,1.5-4.7,1.6-6C539.4,443.8,539.4,442.7,539.3,441.7L539.3,441.7z M519.7,471.9c-2.3,3.5-4.7,6.9-7.4,10.3
				c-2.7,3.4-5.4,6.4-8.4,9.1c1.8-3.7,3.6-7.4,5.6-11.2c2-3.8,4-7.4,6-10.8c2-3.5,3.9-6.7,5.9-9.7c1.9-3,3.6-5.7,5.2-7.9
				c1.6-2.3,2.9-4,4-5.4c1.1-1.3,1.9-2,2.3-2c0.4,0,0.3,0.7-0.1,2.3c-0.5,1.6-1.3,3.7-2.5,6.2c-1.2,2.6-2.7,5.6-4.5,8.9
				S522,468.4,519.7,471.9z M464.7,502.7c2.3-1.4,4.7-2.2,7.2-2.6c0.5-0.1,0.9-0.1,1.2,0.1c0.3,0.1,0.4,0.3,0.4,0.4
				c-0.4,1.1-0.9,2.2-1.6,3.1c-0.7,1-1.5,1.8-2.5,2.4c-0.9,0.7-1.9,1.2-3,1.6s-2.1,0.6-3.2,0.7c-0.7,0-1.4,0-2.1-0.2
				s-1.4-0.4-2.1-0.6C460.5,505.7,462.4,504,464.7,502.7z M459,450.4c2.7-2.3,0.2,4.5-0.2,6c-0.4,1.6-1.2,3.6-2.1,5.8
				c-1.2,3.1-2.5,5.6-4.5,9s-4.1,6-6.6,9.5c-2.5,3.4-5.1,6.8-7.7,10.1c1.4-3.3,2.9-6.7,4.5-10.1s3.2-6.8,4.9-10.1
				c1.7-3.3,3.4-6.4,5.1-9.5c1.7-3,3.2-5.6,4.8-8.1l0.1-0.2c0.4-0.6,0.9-1.3,1.2-1.7L459,450.4L459,450.4z M417.7,513.6
				c-2,2.1-4,3.8-6.2,5s-4.1,1.8-5.7,1.8c-1.5,0-2.2-0.7-2.2-2.1c0-0.4,0-0.7,0.1-1c0-0.3,0.1-0.7,0.2-1s0.3-1,0.7-1.9
				c0.4-0.9,0.9-2,1.5-3.2s1.4-2.5,2.3-3.8s1.9-2.6,3-3.9c1.1-1.2,2.3-2.3,3.6-3.3c1.3-1,2.7-1.6,4.1-2c0.8-0.1,1.4-0.1,1.6,0
				c0.3,0.1,0.4,0.4,0.4,0.7c0,0.6-0.1,1.2-0.3,1.9c-0.2,0.7-0.4,1.4-0.6,2l-0.4,1.2l0.1-0.1c-0.4,1.5-0.3,2.7,0.1,3.5
				c0.5,0.8,1.1,1.4,2,1.6L417.7,513.6L417.7,513.6z"/>
		</g>
		<g>
			<g>
				<path class="st1" d="M319,185.9c10.1,8.1,7.4,5.1,16.1,13.8c4.1,4.1,7.6,15,11.3,34c3.5,17.6,3,34.1,24.5,43
					c17.2,7.1,33.6,5.5,35.5,20.1c1.4,16,10.2,27.4,33.1,33.9c11.8,3.5,2.6,8.6,10.1,18.1c15.8,20.1,31.8,40.1,46.8,60.7
					C493.8,296.9,455.8,192.2,319,185.9L319,185.9L319,185.9z"/>
				<path class="st1" d="M505.6,303.8c3.3-6.6,12.4-11.9,28.2-15.5c17.3-4.8,16.3-5.4,16.1-27.3c0.7-7.3,3.8-10.4,11.1-9.9
					c7.9-0.1,14.1-2.3,13.2-14.1c0.1-5.1-0.5-8.1,5.5-10.3c9.3-3.4,26.2-22.8,38.8-34.4C548,201.8,498.4,250.1,505.6,303.8
					L505.6,303.8L505.6,303.8z"/>
				<path class="st1" d="M673.9,267c-5.3,21-14.5,21.7-23.1,26.1c-13.1,6.7-3.8,25.2-22.6,28.3c-20.3,2.9-28.8,11.7-29.3,31.5
					c-4.6,45.1-74.4,19.3-91.8,61.8l0,0c10.2-137.7,122.4-221.8,227.6-178.9C734.7,235.7,682.9,231.6,673.9,267L673.9,267z"/>
			</g>
			<g>
				<path class="st1" d="M486.7,132.1c-42.8-7.8-37.3,69.6,3.6,57.3C511.5,182.9,524.8,141.6,486.7,132.1z M475.6,181.1
					c-3.5-2-1-6.5,2.8-7.7c6.2-2,6.3-21.2,20.4-16.9C519.3,162.6,485.9,187.1,475.6,181.1L475.6,181.1z"/>
				<path class="st1" d="M430.3,140.4c19.3,7.7,21,1.1,11.7-8.8C424.5,112.8,410.2,132.6,430.3,140.4L430.3,140.4z"/>
				<path class="st1" d="M443.6,193.9c16.1-13,11.2-17.8-2-14.6C416.7,185.6,427,207.6,443.6,193.9L443.6,193.9z"/>
				<path class="st1" d="M538.3,141.9c-19.3,7.7-21,1.1-11.7-8.8C544.1,114.3,558.4,134.1,538.3,141.9L538.3,141.9z"/>
				<path class="st1" d="M525,195.4c-16.1-13-11.2-17.8,2-14.6C551.9,186.9,541.6,209.1,525,195.4L525,195.4z"/>
				<path class="st1" d="M477.2,108.8c3.5,20.4,10,18.5,13.7,5.4C497.7,89.5,473.4,87.7,477.2,108.8L477.2,108.8z"/>
				<path class="st1" d="M491.2,216.4c-3.5-20.4-10-18.5-13.7-5.4C470.8,235.6,495.1,237.6,491.2,216.4L491.2,216.4z"/>
			</g>
		</g>
		<g>
			<path class="st0" d="M332.8,588.5c0-8.9,6.7-15.6,15.5-15.6c5.6,0,10.6,2.8,13.6,7.6l-4.8,3.4c-2-3.3-4.9-5.4-8.8-5.4
				c-5.5,0-9.4,4.1-9.4,10c0,5.9,4,10,9.5,10c3.7,0,6.6-1.7,9.2-5.2l4.4,3.2c-2.9,4.9-8.1,7.6-13.6,7.6
				C339.7,604.2,332.8,597.5,332.8,588.5L332.8,588.5z"/>
			<path class="st0" d="M395.2,603.7l12.2-30.3h6.9l12.2,30.3h-6.4l-2.2-5.9h-14l-2.3,5.9H395.2L395.2,603.7z M416.1,593l-5.3-13.3
				l-5.3,13.3H416.1L416.1,593z"/>
			<path class="st0" d="M462.3,603.7v-30.3h5.5l16.7,20.8v-20.8h6v30.3h-5.6L468.2,583v20.6H462.3z"/>
			<path class="st0" d="M528,588.5c0-8.9,6.7-15.6,15.5-15.6c5.6,0,10.6,2.8,13.6,7.6l-4.8,3.4c-2-3.3-4.9-5.4-8.8-5.4
				c-5.5,0-9.4,4.1-9.4,10c0,5.9,4,10,9.5,10c3.7,0,6.6-1.7,9.2-5.2l4.4,3.2c-2.9,4.9-8.1,7.6-13.6,7.6
				C534.9,604.2,528,597.5,528,588.5L528,588.5z"/>
			<path class="st0" d="M593.7,592.2v-18.8h6V592c0,4.1,2.9,6.7,7,6.7c4.1,0,7-2.6,7-6.7v-18.6h6v18.8c0,7.3-5.2,12-13,12
				S593.7,599.5,593.7,592.2z M604.5,570.9l3.5-7.4h6.5l-5.2,7.4H604.5z"/>
			<path class="st0" d="M658.7,603.7v-30.3h5.5l16.7,20.8v-20.8h6v30.3h-5.5l-16.6-20.5v20.6L658.7,603.7L658.7,603.7L658.7,603.7z"
				/>
		</g>
		<g>
			<path class="st0" d="M284.3,648.8h-16.4v-22.2h4.4V645h12V648.8z"/>
			<path class="st0" d="M287.6,640.3v-13.8h4.4v13.7c0,3,2.2,4.9,5.1,4.9c2.9,0,5.1-1.9,5.1-4.9v-13.7h4.4v13.8
				c0,5.3-3.8,8.8-9.5,8.8C291.4,649.1,287.6,645.6,287.6,640.3z"/>
			<path class="st0" d="M318.8,637.3l-7.9-10.8h5.3l5.3,7.6l5.3-7.6h5.3l-7.9,10.8l8.3,11.4h-5.3l-5.8-8.2l-5.7,8.2h-5.3
				L318.8,637.3L318.8,637.3z"/>
			<path class="st0" d="M336.4,640.3v-13.8h4.4v13.7c0,3,2.2,4.9,5.1,4.9c2.9,0,5.1-1.9,5.1-4.9v-13.7h4.4v13.8
				c0,5.3-3.8,8.8-9.5,8.8C340.2,649.1,336.4,645.6,336.4,640.3z"/>
			<path class="st0" d="M362,648.8v-22.2h9.8c4.8,0,8,2.9,8,7.1c0,2.8-1.6,5.2-4.1,6.3l5,8.8h-4.9l-4.5-8.1h-4.8v8.1L362,648.8
				L362,648.8z M366.5,636.8h5.1c2.4,0,3.7-1.5,3.7-3.2c0-1.9-1.3-3.3-3.7-3.3h-5.1V636.8z"/>
			<path class="st0" d="M387.7,626.5l5.6,9.3l5.7-9.3h5.1l-8.6,13.8v8.4h-4.4v-8.4l-8.6-13.8H387.7z"/>
			<path class="st0" d="M416.7,626.5h10.2c4,0,6.9,2.5,6.9,6.1c0,1.5-0.8,3.8-3,4.6c2.5,0.9,3.7,3,3.7,5.4c0,3.6-2.8,6.2-6.9,6.2
				h-11L416.7,626.5L416.7,626.5L416.7,626.5z M421.1,630.3v5.4h5.2c1.8,0,2.9-1.1,2.9-2.7c0-1.8-1.3-2.8-3.1-2.8L421.1,630.3
				L421.1,630.3z M421.1,639.2v5.7h5.8c1.8,0,2.9-1.1,2.9-2.7c0-1.8-1.1-3-2.9-3H421.1z"/>
			<path class="st0" d="M440,626.5h15.8v3.8h-11.4v5.1h9.9v3.8h-9.9v5.6H456v3.8h-16.1v-22.1L440,626.5L440,626.5z"/>
			<path class="st0" d="M458.8,648.8l9-22.2h5.1l9,22.2h-4.7l-1.6-4.4h-10.3l-1.7,4.4H458.8z M474.2,641l-3.9-9.7l-3.9,9.7H474.2z"
				/>
			<path class="st0" d="M483.9,637.6c0-6.5,4.9-11.4,11.4-11.4c4.1,0,7.8,2.1,10,5.5l-3.5,2.5c-1.5-2.5-3.6-3.9-6.5-3.9
				c-4,0-6.9,3-6.9,7.4s2.9,7.4,7,7.4c2.7,0,4.9-1.2,6.7-3.8l3.3,2.4c-2.1,3.6-6,5.6-10,5.6C489,649.1,483.9,644.1,483.9,637.6z"/>
			<path class="st0" d="M514.7,626.5v9h10.8v-9h4.4v22.2h-4.4v-9.4h-10.8v9.4h-4.4v-22.2H514.7z"/>
			<path class="st0" d="M546.3,648.8v-22.2h9.8c4.8,0,8,2.9,8,7.1c0,2.8-1.6,5.2-4.1,6.3l5,8.8h-4.8l-4.5-8.1h-4.8v8.1L546.3,648.8
				L546.3,648.8z M550.7,636.8h5.1c2.4,0,3.7-1.5,3.7-3.2c0-1.9-1.3-3.3-3.7-3.3h-5.1V636.8z"/>
			<path class="st0" d="M569.9,626.5h15.8v3.8h-11.4v5.1h9.9v3.8h-9.9v5.6h11.6v3.8h-16.1v-22.1L569.9,626.5L569.9,626.5z"/>
			<path class="st0" d="M593.2,641.5c1,2.1,3,3.6,5.7,3.6c2.1,0,3.8-1,3.8-2.5s-1.7-2.3-4.3-3.1c-4.3-1.3-7.8-2.7-7.8-6.9
				s4.1-6.4,7.9-6.4c4,0,6.8,2.4,8.2,4.8l-3.4,2.4c-1-1.6-2.6-3.3-4.9-3.3c-1.7,0-3.2,0.9-3.2,2.4c0,1.8,1.6,2,4.4,3
				c4.2,1.5,7.6,2.6,7.6,7s-4.4,6.5-8.4,6.5c-4.3,0-7.6-2.2-8.9-5.3L593.2,641.5L593.2,641.5z"/>
			<path class="st0" d="M611.3,637.8c0-6.7,4.9-11.5,11.6-11.5s11.7,4.8,11.7,11.5s-4.9,11.4-11.7,11.4
				C616.1,649.2,611.3,644.5,611.3,637.8z M622.9,645c4.2,0,7.1-2.9,7.1-7.3s-2.9-7.4-7.1-7.4s-7.1,3-7.1,7.4S618.8,645,622.9,645z"
				/>
			<path class="st0" d="M640,648.8v-22.2h9.8c4.8,0,8,2.9,8,7.1c0,2.8-1.6,5.2-4.1,6.3l5,8.8h-4.9l-4.5-8.1h-4.8v8.1L640,648.8
				L640,648.8z M644.4,636.8h5.1c2.4,0,3.7-1.5,3.7-3.2c0-1.9-1.3-3.3-3.7-3.3h-5.1V636.8z"/>
			<path class="st0" d="M660.8,626.5h18.3v3.9h-6.9v18.3h-4.4v-18.3h-7L660.8,626.5L660.8,626.5L660.8,626.5z"/>
			<path class="st0" d="M695,636.8c-1.5-1.5-2.4-3-2.4-4.6c0-3.8,3.2-6,7-6s6.7,2.4,6.7,5.8c0,2.4-1.7,4-4.9,5.7l3.9,3.8
				c0.2-0.4,0.4-1.4,0.4-2.7c0-0.6,0-1.3-0.2-2.1h4.1c0.1,0.9,0.2,1.7,0.2,2.5c0,1.8-0.4,3.4-1.4,5l4.8,4.7h-5.8l-1.8-1.7
				c-1.4,1-3.5,2-6.5,2c-5.3,0-8.6-2.6-8.6-6.3C690.4,639.9,692.8,638,695,636.8L695,636.8z M694.9,642.5c0,1.8,1.8,2.8,4.1,2.8
				c1.6,0,2.9-0.4,3.7-1l-5.1-4.9C696.4,639.8,694.9,640.8,694.9,642.5L694.9,642.5z M696.9,632.1c0,1.4,0.8,2.2,1.8,3.1
				c2.2-1,3.2-2.1,3.2-3.2c0-1.4-1.2-2-2.4-2C698.2,629.9,696.9,630.7,696.9,632.1L696.9,632.1z"/>
			<path class="st0" d="M727.4,641.5c1,2.1,3,3.6,5.7,3.6c2.1,0,3.8-1,3.8-2.5s-1.7-2.3-4.3-3.1c-4.3-1.3-7.8-2.7-7.8-6.9
				s4.1-6.4,7.9-6.4c4,0,6.8,2.4,8.2,4.8l-3.4,2.4c-1-1.6-2.6-3.3-4.9-3.3c-1.7,0-3.2,0.9-3.2,2.4c0,1.8,1.6,2,4.4,3
				c4.2,1.5,7.6,2.6,7.6,7S737,649,733,649c-4.3,0-7.6-2.2-8.9-5.3L727.4,641.5L727.4,641.5z"/>
			<path class="st0" d="M746.9,648.8v-22.2h9.7c4.8,0,8,3,8,7.3s-3.1,7.3-8,7.3h-5.3v7.6L746.9,648.8L746.9,648.8z M751.3,637.3h5
				c2.4,0,3.7-1.5,3.7-3.4c0-2-1.3-3.5-3.7-3.5h-5V637.3z"/>
			<path class="st0" d="M765.1,648.8l9-22.2h5.1l9,22.2h-4.7l-1.6-4.4h-10.3l-1.7,4.4H765.1z M780.5,641l-3.9-9.7l-3.9,9.7H780.5
				L780.5,641z"/>
		</g>
	</g>
</g>
</svg>
